<?xml version="1.0" encoding="utf-8"?>
<!-- Generator: Adobe Illustrator 18.1.1, SVG Export Plug-In . SVG Version: 6.00 Build 0)  -->
<svg version="1.1" id="Layer_1" xmlns="http://www.w3.org/2000/svg" xmlns:xlink="http://www.w3.org/1999/xlink" x="0px" y="0px"
	 viewBox="0 0 600 32" enable-background="new 0 0 600 32" xml:space="preserve">
<g>
	<path fill="#CCCCCC" d="M599.5,17h-600V3.7C-0.5,1.7,1.2,0,3.3,0h592.9c2.1,0,3.3,1.7,3.3,3.7V17z"/>
	<circle opacity="0.71" fill="#E74C3C" cx="9.3" cy="9.4" r="3.5"/>
	<circle opacity="0.71" fill="#F1C40F" cx="20.9" cy="9.4" r="3.5"/>
	<circle opacity="0.71" fill="#2ECC71" cx="32.4" cy="9.4" r="3.5"/>
	<path fill="#E6E6E6" d="M124.7,6.7c-0.3-0.9-1-1.7-2.2-1.7H54.2c-1.2,0-2,0.8-2.2,1.7l-3,9.3c-0.3,0.7-1.5,1.1-1.5,1.1h81.7
		c0,0-1.2-0.3-1.5-1.1L124.7,6.7z"/>
	<rect x="-0.5" y="17" fill="#E6E6E6" width="600" height="15"/>
</g>
</svg>
